Coordinates
version=1
nRows=9
nColumns=63
inDegrees=yes

Units are S.I. units (second, meters, Newtons, ...)
If the header above contains a line with 'inDegrees', this indicates whether rotational values are in degrees (yes) or radians (no).

endheader
time	pelvis_tilt	pelvis_list	pelvis_rotation	pelvis_tx	pelvis_ty	pelvis_tz	hip_flexion_r	hip_adduction_r	hip_rotation_r	knee_angle_r	knee_angle_r_beta	ankle_angle_r	subtalar_angle_r	mtp_angle_r	hip_flexion_l	hip_adduction_l	hip_rotation_l	knee_angle_l	knee_angle_l_beta	ankle_angle_l	subtalar_angle_l	mtp_angle_l	L5_S1_Flex_Ext	L5_S1_Lat_Bending	L5_S1_axial_rotation	L4_L5_Flex_Ext	L4_L5_Lat_Bending	L4_L5_axial_rotation	L3_L4_Flex_Ext	L3_L4_Lat_Bending	L3_L4_axial_rotation	L2_L3_Flex_Ext	L2_L3_Lat_Bending	L2_L3_axial_rotation	L1_L2_Flex_Ext	L1_L2_Lat_Bending	L1_L2_axial_rotation	L1_T12_Flex_Ext	L1_T12_Lat_Bending	L1_T12_axial_rotation	Abs_r3	Abs_r2	Abs_r1	Abs_t1	Abs_t2	neck_flexion	neck_bending	neck_rotation	arm_flex_r	arm_add_r	arm_rot_r	elbow_flex_r	pro_sup_r	wrist_flex_r	wrist_dev_r	arm_flex_l	arm_add_l	arm_rot_l	elbow_flex_l	pro_sup_l	wrist_flex_l	wrist_dev_l
      0.00000000	     -2.91861825	     -4.61224613	    108.04587324	      0.05992956	      0.95974209	      0.54742708	      0.06842718	     -1.08120867	    -16.78637847	      6.63956878	      0.11588234	     21.19215573	      7.08887625	      0.00000000	      3.72781758	      1.25244439	      5.51399409	      6.22539617	      0.10865366	     23.90068936	      7.36237107	      0.00000000	      0.20186341	      0.06249816	     -2.09586988	      0.37488055	      0.08312255	     -2.22686175	      0.33164140	      0.15195802	     -2.22686175	      0.23070970	      0.15195802	     -1.83388615	      0.18745037	      0.12744624	     -1.70289428	      0.11534475	      0.09680964	     -1.57190241	      1.44189018	      0.70699163	    -11.65659952	      0.00000000	      0.00000000	     25.91694329	     -1.06772676	      4.88273237	     16.87613714	    -11.16252664	     73.88170474	     52.59646494	     12.58813602	     -7.58087722	     21.60018351	      8.80542461	    -10.20147948	     42.64645566	     60.08941338	     85.54882334	     22.44430855	     21.64615366
      0.01694915	     -3.06382597	     -4.56519959	    107.34342771	      0.05999510	      0.95919118	      0.54490471	      0.32548356	     -1.42767232	    -16.64203239	      7.36478878	      0.12853981	     23.09999369	      9.09798079	      0.00000000	      3.11946508	      1.45165382	      5.93378224	      5.62084900	      0.09810232	     24.72197862	      6.53622434	      0.00000000	      0.21403323	      0.05940654	     -1.93735026	      0.39748110	      0.07901070	     -2.05843465	      0.35163519	      0.14444106	     -2.05843465	      0.24461857	      0.14444106	     -1.69518147	      0.19875125	      0.12114181	     -1.57409708	      0.12229859	      0.09202073	     -1.45301269	      1.52881793	      0.67201865	    -10.77496092	      0.00000000	      0.00000000	     26.01300117	     -1.16254689	      5.22722225	     15.91226797	    -11.37133474	     72.17599837	     53.73801755	     15.55258698	     -9.79151666	     23.41397956	      8.46257442	     -9.87704218	     42.72498998	     59.90652220	     82.50978550	     20.26918301	     22.75811644
      0.03389831	     -3.17987499	     -4.44997635	    107.16078781	      0.05973254	      0.95898927	      0.54315120	      0.30745774	     -1.58765578	    -16.00939447	      7.69775148	      0.13435111	     24.21047796	      9.40831364	      0.00000000	      2.71544913	      1.55948611	      6.24140030	      5.38036814	      0.09390514	     25.50140884	      6.61726325	      0.00000000	      0.20702317	      0.05429219	     -1.90622613	      0.38446273	      0.07220862	     -2.02536526	      0.34011837	      0.13200604	     -2.02536526	      0.23660678	      0.13200604	     -1.66794786	      0.19224172	      0.11071264	     -1.54880873	      0.11829304	      0.08409861	     -1.42966960	      1.47874582	      0.61416414	    -10.60185786	      0.00000000	      0.00000000	     26.03424381	     -1.19161525	      5.36557212	     15.63516260	    -11.50954819	     72.07680317	     54.22269303	     15.84895959	     -9.85688860	     23.60417401	      8.08018787	     -9.67505391	     42.21696316	     59.79497408	     81.97743970	     19.90635656	     22.61565572
      0.05084746	     -3.30815764	     -4.42123901	    106.18263375	      0.06029888	      0.95878578	      0.54110937	      0.57195393	     -1.79381312	    -14.36195241	      8.29392434	      0.14475629	     24.89575605	      8.85771579	      0.00000000	      2.15750441	      1.71849952	      5.79925322	      4.72986931	      0.08255179	     25.71062018	      6.02225577	      0.00000000	      0.20729678	      0.05626471	     -1.74538470	      0.38497084	      0.07483206	     -1.85447124	      0.34056787	      0.13680202	     -1.85447124	      0.23691949	      0.13680202	     -1.52721161	      0.19249579	      0.11473500	     -1.41812507	      0.11844938	      0.08715404	     -1.30903852	      1.48070015	      0.63647766	     -9.70730607	      0.00000000	      0.00000000	     26.23112257	     -1.34249580	      5.70469573	     14.67455261	    -11.48650597	     69.98965404	     54.47065800	     20.78698715	     -9.71735296	     25.53155200	      7.62873154	     -9.68440086	     42.36294131	     60.19233949	     79.12545909	     17.17318845	     23.40431631
      0.06779661	     -3.39396150	     -4.32519643	    105.88992318	      0.06012720	      0.95885888	      0.53980821	      0.56082503	     -1.90474812	    -13.53331608	      8.58031397	      0.14975473	     25.31723071	      8.38000311	      0.00000000	      1.73938800	      1.78898192	      5.61261773	      4.31043491	      0.07523128	     25.85615569	      6.23311959	      0.00000000	      0.19394732	      0.05796995	     -1.70487635	      0.36017957	      0.07710004	     -1.81143113	      0.31863605	      0.14094814	     -1.81143113	      0.22166239	      0.14094814	     -1.49176681	      0.18009948	      0.11821233	     -1.38521204	      0.11082150	      0.08979546	     -1.27865727	      1.38534632	      0.65576769	     -9.48201082	      0.00000000	      0.00000000	     26.32369284	     -1.60232769	      5.57715500	     14.23946656	    -11.56135722	     69.23205078	     54.58627190	     22.55496681	     -9.14068948	     25.66982786	      7.38591183	     -9.80605927	     42.53921526	     60.38775136	     77.93520608	     15.99457168	     22.89253305
      0.08474576	     -3.44947504	     -4.27099907	    105.67085007	      0.05991914	      0.95895230	      0.53870647	      0.51639945	     -1.95511233	    -12.65475622	      8.67742926	      0.15144971	     25.45836921	      7.56684457	      0.00000000	      1.55303594	      1.83400413	      5.15039303	      4.24933948	      0.07416496	     26.06261602	      6.68451320	      0.00000000	      0.18339489	      0.06117619	     -1.70586091	      0.34058266	      0.08136433	     -1.81247722	      0.30129947	      0.14874378	     -1.81247722	      0.20960202	      0.14874378	     -1.49262830	      0.17030050	      0.12475048	     -1.38601199	      0.10479184	      0.09476192	     -1.27939569	      1.30997139	      0.69203727	     -9.48748665	      0.00000000	      0.00000000	     26.46197587	     -1.72617604	      5.62227402	     13.80287102	    -11.48378451	     68.30922423	     54.55737230	     24.08394219	     -8.95259019	     26.26787631	      6.75302160	     -9.68826614	     41.54541460	     60.67438127	     79.18153289	     16.03129804	     22.43359479
      0.10169492	     -3.51111547	     -4.19204926	    105.58246001	      0.05964712	      0.95914025	      0.53784898	      0.40783239	     -2.00665892	    -12.25584237	      8.68696747	      0.15161618	     25.62553323	      7.11476835	      0.00000000	      1.35728033	      1.86500961	      4.66786557	      4.17300625	      0.07283270	     26.19719854	      7.37903125	      0.00000000	      0.17031688	      0.06123459	     -1.72420696	      0.31629547	      0.08144200	     -1.83196990	      0.27981360	      0.14888578	     -1.83196990	      0.19465516	      0.14888578	     -1.50868109	      0.15815625	      0.12486958	     -1.40091816	      0.09731906	      0.09485238	     -1.29315522	      1.21655642	      0.69269793	     -9.58952186	      0.00000000	      0.00000000	     26.51950339	     -1.83636482	      5.52707970	     13.63113944	    -11.37654774	     67.98894433	     54.27947802	     24.70467320	     -8.27775135	     26.30560422	      6.37342116	     -9.76282534	     41.25328973	     60.93993576	     79.52044712	     15.35515055	     21.84390630
      0.11864407	     -3.52173033	     -4.10663025	    105.58204275	      0.05921840	      0.95934066	      0.53710085	      0.26163666	     -2.02645985	    -12.40941560	      8.57727575	      0.14970170	     25.91482045	      7.32236694	      0.00000000	      1.16036414	      1.86445372	      4.90667378	      4.08667581	      0.07132595	     26.09964071	      7.19397382	      0.00000000	      0.15919444	      0.06802535	     -1.75951527	      0.29564000	      0.09047372	     -1.86948497	      0.26154055	      0.16539685	     -1.86948497	      0.18194333	      0.16539685	     -1.53957586	      0.14782796	      0.13871730	     -1.42960616	      0.09096370	      0.10537127	     -1.31963645	      1.13710997	      0.76951641	     -9.78589607	      0.00000000	      0.00000000	     26.53521372	     -1.99287303	      5.50168693	     13.70582568	    -11.27947664	     68.27266974	     53.91839848	     24.86044721	     -7.94824521	     26.02611696	      6.02404714	     -9.69686809	     40.79411940	     60.94187244	     80.58079366	     15.40110427	     21.13699987
      0.13559322	     -3.51966839	     -4.02033513	    105.57978963	      0.05886307	      0.95950421	      0.53642496	      0.09592126	     -2.03423229	    -12.84217708	      8.37203496	      0.14611958	     26.27970905	      8.02618699	      0.00000000	      0.99936479	      1.84240127	      5.05704274	      4.10117252	      0.07157896	     25.97285856	      7.06766370	      0.00000000	      0.14936050	      0.07392090	     -1.76986293	      0.27737738	      0.09831479	     -1.88047937	      0.24538436	      0.17973127	     -1.88047937	      0.17070411	      0.17973127	     -1.54863007	      0.13869616	      0.15073949	     -1.43801363	      0.08534459	      0.11450347	     -1.32739720	      1.06686711	      0.83620797	     -9.84344667	      0.00000000	      0.00000000	     26.53080060	     -2.14709052	      5.37333310	     13.75824785	    -11.13193072	     68.45814889	     53.45231584	     24.74479175	     -7.73647987	     25.89665645	      5.89060550	     -9.61889771	     40.74904644	     60.77968465	     81.37104467	     15.31586695	     20.74817919
